<svg width="500" height="500" viewBox="0 0 500 500" fill="none" xmlns="http://www.w3.org/2000/svg">
<rect width="500" height="500" fill="#121212"/>
<path d="M402.667 154.583H345.417V97.3329C345.417 76.284 328.299 59.1663 307.25 59.1663L192.75 59.1663C171.701 59.1663 154.583 76.284 154.583 97.3329V154.583H97.3334C76.2845 154.583 59.1667 171.701 59.1667 192.75L59.1667 307.25C59.1667 328.299 76.2845 345.416 97.3334 345.416H154.583V402.666C154.583 423.715 171.701 440.833 192.75 440.833L307.25 440.833C328.299 440.833 345.417 423.715 345.417 402.666V345.416H402.667C423.716 345.416 440.833 328.299 440.833 307.25L440.833 192.75C440.833 171.701 423.716 154.583 402.667 154.583ZM402.667 307.25L307.25 307.25L307.25 383.583H307.269V402.666L192.75 402.666L192.75 307.25H97.3334L97.3334 192.75L192.75 192.75L192.75 97.3329L307.25 97.3329V192.75L402.667 192.75L402.667 307.25Z" fill="url(#paint0_linear)"/>
<path d="M173.667 288.166L173.667 211.833L116.417 250L173.667 288.166ZM326.333 288.166L383.583 250L326.333 211.833V288.166ZM211.833 173.666L288.167 173.666L250 116.416L211.833 173.666ZM250 383.583L288.167 326.333H211.833L250 383.583Z" fill="url(#paint1_linear)"/>
<path d="M250 288.166C271.079 288.166 288.167 271.079 288.167 250C288.167 228.921 271.079 211.833 250 211.833C228.921 211.833 211.833 228.921 211.833 250C211.833 271.079 228.921 288.166 250 288.166Z" fill="url(#paint2_linear)"/>
<defs>
<linearGradient id="paint0_linear" x1="439.829" y1="60.1711" x2="60.1713" y2="439.829" gradientUnits="userSpaceOnUse">
<stop stop-color="#007DFF"/>
<stop offset="0.479167" stop-color="#00D2D9"/>
<stop offset="1" stop-color="#00E579"/>
</linearGradient>
<linearGradient id="paint1_linear" x1="382.579" y1="117.421" x2="117.421" y2="382.579" gradientUnits="userSpaceOnUse">
<stop offset="0.0208333" stop-color="#007DFF"/>
<stop offset="0.481787" stop-color="#00D2D9"/>
<stop offset="1" stop-color="#00E579"/>
</linearGradient>
<linearGradient id="paint2_linear" x1="289.171" y1="210.829" x2="210.829" y2="289.171" gradientUnits="userSpaceOnUse">
<stop stop-color="#007DFF"/>
<stop offset="0.479167" stop-color="#00D2D9"/>
<stop offset="1" stop-color="#00E579"/>
</linearGradient>
</defs>
</svg>
