<svg width="971" height="126" viewBox="0 0 971 126" fill="none" xmlns="http://www.w3.org/2000/svg">
<g clip-path="url(#clip0)">
<path d="M199.68 49.04L195.168 63.632H210.24L205.728 49.04C205.472 48.464 205.184 48.048 204.864 47.792C204.608 47.536 204.288 47.408 203.904 47.408H201.504C201.12 47.408 200.768 47.536 200.448 47.792C200.192 48.048 199.936 48.464 199.68 49.04ZM194.208 94.544C194.208 95.76 193.92 96.656 193.344 97.232C192.832 97.744 191.968 98 190.752 98H176.64C175.424 98 174.528 97.744 173.952 97.232C173.44 96.656 173.184 95.76 173.184 94.544V69.2C173.184 67.28 173.472 65.072 174.048 62.576C174.688 60.08 175.648 57.168 176.928 53.84L185.28 32.048C185.664 30.96 186.24 30.16 187.008 29.648C187.84 29.136 188.896 28.88 190.176 28.88H216C217.216 28.88 218.208 29.136 218.976 29.648C219.808 30.16 220.416 30.96 220.8 32.048L229.152 53.84C230.432 57.168 231.36 60.08 231.936 62.576C232.576 65.072 232.896 67.28 232.896 69.2V94.544C232.896 95.76 232.608 96.656 232.032 97.232C231.52 97.744 230.656 98 229.44 98H214.944C213.664 98 212.704 97.744 212.064 97.232C211.488 96.656 211.2 95.76 211.2 94.544V81.104H194.208V94.544ZM263.565 98H248.685C247.469 98 246.573 97.744 245.997 97.232C245.485 96.656 245.229 95.76 245.229 94.544V32.336C245.229 31.12 245.485 30.256 245.997 29.744C246.573 29.168 247.469 28.88 248.685 28.88H291.501C292.717 28.88 293.581 29.168 294.093 29.744C294.669 30.256 294.957 31.12 294.957 32.336V43.76C294.957 44.976 294.669 45.872 294.093 46.448C293.581 46.96 292.717 47.216 291.501 47.216H267.021V57.2H283.725C284.941 57.2 285.805 57.488 286.317 58.064C286.893 58.576 287.181 59.44 287.181 60.656V72.176C287.181 73.392 286.893 74.288 286.317 74.864C285.805 75.376 284.941 75.632 283.725 75.632H267.021V94.544C267.021 95.76 266.733 96.656 266.157 97.232C265.645 97.744 264.781 98 263.565 98ZM341.533 98H325.981C324.765 98 323.869 97.744 323.293 97.232C322.781 96.656 322.525 95.76 322.525 94.544V47.408H308.413C307.197 47.408 306.301 47.152 305.725 46.64C305.213 46.064 304.957 45.168 304.957 43.952V32.336C304.957 31.12 305.213 30.256 305.725 29.744C306.301 29.168 307.197 28.88 308.413 28.88H359.101C360.317 28.88 361.181 29.168 361.693 29.744C362.269 30.256 362.557 31.12 362.557 32.336V43.952C362.557 45.168 362.269 46.064 361.693 46.64C361.181 47.152 360.317 47.408 359.101 47.408H344.989V94.544C344.989 95.76 344.701 96.656 344.125 97.232C343.613 97.744 342.749 98 341.533 98ZM421.813 98H377.269C376.053 98 375.157 97.744 374.581 97.232C374.069 96.656 373.813 95.76 373.813 94.544V32.336C373.813 31.12 374.069 30.256 374.581 29.744C375.157 29.168 376.053 28.88 377.269 28.88H421.813C423.029 28.88 423.893 29.168 424.405 29.744C424.981 30.256 425.269 31.12 425.269 32.336V43.568C425.269 44.784 424.981 45.68 424.405 46.256C423.893 46.768 423.029 47.024 421.813 47.024H395.317V54.416H414.037C415.253 54.416 416.117 54.704 416.629 55.28C417.205 55.792 417.493 56.656 417.493 57.872V68.144C417.493 69.36 417.205 70.256 416.629 70.832C416.117 71.344 415.253 71.6 414.037 71.6H395.317V79.856H421.813C423.029 79.856 423.893 80.144 424.405 80.72C424.981 81.232 425.269 82.096 425.269 83.312V94.544C425.269 95.76 424.981 96.656 424.405 97.232C423.893 97.744 423.029 98 421.813 98ZM458.801 46.16V58.448H466.001C467.665 58.448 468.785 58.032 469.361 57.2C469.937 56.304 470.225 55.216 470.225 53.936V50.672C470.225 49.392 469.937 48.336 469.361 47.504C468.785 46.608 467.665 46.16 466.001 46.16H458.801ZM455.345 98H440.561C439.345 98 438.449 97.744 437.873 97.232C437.361 96.656 437.105 95.76 437.105 94.544V32.336C437.105 31.12 437.361 30.256 437.873 29.744C438.449 29.168 439.345 28.88 440.561 28.88H472.529C479.697 28.88 484.625 30.384 487.313 33.392C490.065 36.336 491.441 40.176 491.441 44.912V49.328C491.441 52.016 491.025 54.32 490.193 56.24C489.425 58.096 488.049 59.44 486.065 60.272C489.521 60.656 492.305 62.064 494.417 64.496C496.593 66.928 497.681 70.16 497.681 74.192V94.544C497.681 95.76 497.393 96.656 496.817 97.232C496.305 97.744 495.441 98 494.225 98H479.345C478.129 98 477.233 97.744 476.657 97.232C476.145 96.656 475.889 95.76 475.889 94.544V79.856C475.889 78.448 475.601 77.424 475.025 76.784C474.513 76.08 473.585 75.728 472.241 75.728H458.801V94.544C458.801 95.76 458.513 96.656 457.937 97.232C457.425 97.744 456.561 98 455.345 98ZM558.092 28.88H572.396C573.612 28.88 574.476 29.168 574.988 29.744C575.564 30.256 575.852 31.12 575.852 32.336V69.584C575.852 71.632 575.756 73.552 575.564 75.344C575.436 77.072 574.956 79.12 574.124 81.488L569.324 94.544C569.004 95.504 568.524 96.336 567.884 97.04C567.308 97.68 566.508 98 565.484 98H552.716C551.692 98 550.764 97.776 549.932 97.328C549.1 96.88 548.556 96.144 548.3 95.12L543.884 79.472C543.692 78.832 543.436 78.416 543.116 78.224C542.86 77.968 542.54 77.84 542.156 77.84H541.292C540.908 77.84 540.556 77.968 540.236 78.224C539.98 78.416 539.756 78.832 539.564 79.472L535.052 95.12C534.796 96.08 534.316 96.816 533.612 97.328C532.908 97.776 532.044 98 531.02 98H518.348C517.324 98 516.428 97.68 515.66 97.04C514.956 96.4 514.444 95.568 514.124 94.544L509.324 81.296C508.492 78.928 507.98 76.88 507.788 75.152C507.66 73.36 507.596 71.44 507.596 69.392V32.336C507.596 31.12 507.852 30.256 508.364 29.744C508.94 29.168 509.836 28.88 511.052 28.88H525.836C527.052 28.88 527.916 29.168 528.428 29.744C529.004 30.256 529.292 31.12 529.292 32.336V67.664L534.86 55.568C535.372 54.48 536.044 53.712 536.876 53.264C537.708 52.816 538.732 52.592 539.948 52.592H543.98C545.196 52.592 546.22 52.816 547.052 53.264C547.884 53.712 548.556 54.48 549.068 55.568L554.636 67.664V32.336C554.636 31.12 554.892 30.256 555.404 29.744C555.98 29.168 556.876 28.88 558.092 28.88ZM647.282 79.856C647.282 82.8 646.834 85.488 645.938 87.92C645.106 90.288 643.57 92.336 641.33 94.064C639.154 95.728 636.114 97.04 632.21 98C628.37 98.96 623.474 99.44 617.522 99.44C611.57 99.44 606.642 98.96 602.738 98C598.834 97.04 595.762 95.728 593.522 94.064C591.346 92.336 589.81 90.288 588.914 87.92C588.082 85.488 587.666 82.8 587.666 79.856V47.12C587.666 44.176 588.082 41.52 588.914 39.152C589.81 36.72 591.346 34.64 593.522 32.912C595.762 31.184 598.834 29.84 602.738 28.88C606.642 27.92 611.57 27.44 617.522 27.44C623.474 27.44 628.37 27.92 632.21 28.88C636.114 29.84 639.154 31.184 641.33 32.912C643.57 34.64 645.106 36.72 645.938 39.152C646.834 41.52 647.282 44.176 647.282 47.12V79.856ZM609.458 76.4C609.458 77.68 609.938 78.768 610.898 79.664C611.858 80.496 614.066 80.912 617.522 80.912C620.978 80.912 623.186 80.496 624.146 79.664C625.106 78.768 625.586 77.68 625.586 76.4V50.576C625.586 49.36 625.106 48.336 624.146 47.504C623.186 46.608 620.978 46.16 617.522 46.16C614.066 46.16 611.858 46.608 610.898 47.504C609.938 48.336 609.458 49.36 609.458 50.576V76.4ZM681.679 46.16V58.448H688.879C690.543 58.448 691.663 58.032 692.239 57.2C692.815 56.304 693.103 55.216 693.103 53.936V50.672C693.103 49.392 692.815 48.336 692.239 47.504C691.663 46.608 690.543 46.16 688.879 46.16H681.679ZM678.223 98H663.439C662.223 98 661.327 97.744 660.751 97.232C660.239 96.656 659.983 95.76 659.983 94.544V32.336C659.983 31.12 660.239 30.256 660.751 29.744C661.327 29.168 662.223 28.88 663.439 28.88H695.407C702.575 28.88 707.503 30.384 710.191 33.392C712.943 36.336 714.319 40.176 714.319 44.912V49.328C714.319 52.016 713.903 54.32 713.071 56.24C712.303 58.096 710.927 59.44 708.943 60.272C712.399 60.656 715.183 62.064 717.295 64.496C719.471 66.928 720.559 70.16 720.559 74.192V94.544C720.559 95.76 720.271 96.656 719.695 97.232C719.183 97.744 718.319 98 717.103 98H702.223C701.007 98 700.111 97.744 699.535 97.232C699.023 96.656 698.767 95.76 698.767 94.544V79.856C698.767 78.448 698.479 77.424 697.903 76.784C697.391 76.08 696.463 75.728 695.119 75.728H681.679V94.544C681.679 95.76 681.391 96.656 680.815 97.232C680.303 97.744 679.439 98 678.223 98ZM750.142 98H735.262C734.046 98 733.15 97.744 732.574 97.232C732.062 96.656 731.806 95.76 731.806 94.544V32.336C731.806 31.12 732.062 30.256 732.574 29.744C733.15 29.168 734.046 28.88 735.262 28.88H750.142C751.358 28.88 752.222 29.168 752.734 29.744C753.31 30.256 753.598 31.12 753.598 32.336V54.416H757.438L767.326 32.048C767.774 30.896 768.382 30.096 769.15 29.648C769.918 29.136 770.91 28.88 772.126 28.88H786.91C787.998 28.88 788.734 29.168 789.118 29.744C789.502 30.256 789.47 31.024 789.022 32.048L779.23 54.416C782.814 54.608 785.662 55.888 787.774 58.256C789.95 60.56 791.038 63.632 791.038 67.472V94.544C791.038 95.76 790.75 96.656 790.174 97.232C789.662 97.744 788.798 98 787.582 98H772.798C771.582 98 770.686 97.744 770.11 97.232C769.598 96.656 769.342 95.76 769.342 94.544V75.824C769.342 74.8 769.086 74 768.574 73.424C768.062 72.848 767.294 72.56 766.27 72.56H753.598V94.544C753.598 95.76 753.31 96.656 752.734 97.232C752.222 97.744 751.358 98 750.142 98Z" fill="#121212"/>
<path d="M825.415 98H806.023C804.807 98 803.911 97.744 803.335 97.232C802.823 96.656 802.567 95.76 802.567 94.544V75.056C802.567 73.84 802.823 72.976 803.335 72.464C803.911 71.888 804.807 71.6 806.023 71.6H825.415C826.631 71.6 827.495 71.888 828.007 72.464C828.583 72.976 828.871 73.84 828.871 75.056V94.544C828.871 95.76 828.583 96.656 828.007 97.232C827.495 97.744 826.631 98 825.415 98ZM894.035 98H863.795C855.795 98 849.843 96.4 845.939 93.2C842.099 90 840.179 85.072 840.179 78.416V48.464C840.179 41.808 842.099 36.88 845.939 33.68C849.843 30.48 855.795 28.88 863.795 28.88H887.795C889.011 28.88 889.875 29.168 890.387 29.744C890.963 30.256 891.251 31.12 891.251 32.336V43.952C891.251 45.168 890.963 46.064 890.387 46.64C889.875 47.152 889.011 47.408 887.795 47.408H867.827C865.843 47.408 864.371 47.824 863.411 48.656C862.451 49.424 861.971 50.608 861.971 52.208V75.152C861.971 76.752 862.323 77.936 863.027 78.704C863.795 79.472 864.915 79.856 866.387 79.856H875.699V64.88C875.699 63.664 875.955 62.8 876.467 62.288C877.043 61.712 877.939 61.424 879.155 61.424H894.035C895.251 61.424 896.115 61.712 896.627 62.288C897.203 62.8 897.491 63.664 897.491 64.88V94.544C897.491 95.76 897.203 96.656 896.627 97.232C896.115 97.744 895.251 98 894.035 98ZM962.484 98H932.244C924.244 98 918.292 96.4 914.388 93.2C910.548 90 908.628 85.072 908.628 78.416V48.464C908.628 41.808 910.548 36.88 914.388 33.68C918.292 30.48 924.244 28.88 932.244 28.88H956.244C957.46 28.88 958.324 29.168 958.836 29.744C959.412 30.256 959.7 31.12 959.7 32.336V43.952C959.7 45.168 959.412 46.064 958.836 46.64C958.324 47.152 957.46 47.408 956.244 47.408H936.276C934.292 47.408 932.82 47.824 931.86 48.656C930.9 49.424 930.42 50.608 930.42 52.208V75.152C930.42 76.752 930.772 77.936 931.476 78.704C932.244 79.472 933.364 79.856 934.836 79.856H944.148V64.88C944.148 63.664 944.404 62.8 944.916 62.288C945.492 61.712 946.388 61.424 947.604 61.424H962.484C963.7 61.424 964.564 61.712 965.076 62.288C965.652 62.8 965.94 63.664 965.94 64.88V94.544C965.94 95.76 965.652 96.656 965.076 97.232C964.564 97.744 963.7 98 962.484 98Z" fill="url(#paint0_linear)"/>
<path d="M113.667 31.3332L94.6665 31.3332V12.3332C94.6665 5.3475 88.9855 -0.333496 81.9998 -0.333496L43.9999 -0.333496C37.0142 -0.333496 31.3332 5.3475 31.3332 12.3332V31.3332H12.3332C5.34753 31.3332 -0.333473 37.0142 -0.333473 43.9998L-0.333473 81.9998C-0.333473 88.9855 5.34753 94.6665 12.3332 94.6665H31.3332L31.3332 113.667C31.3332 120.652 37.0142 126.333 43.9999 126.333H81.9998C88.9855 126.333 94.6665 120.652 94.6665 113.667V94.6665H113.667C120.652 94.6665 126.333 88.9855 126.333 81.9998V43.9998C126.333 37.0142 120.652 31.3332 113.667 31.3332ZM113.667 81.9998H81.9998V107.333H82.0062V113.667H43.9999L43.9999 81.9998L12.3332 81.9998L12.3332 43.9998L43.9999 43.9998L43.9999 12.3332L81.9998 12.3332L81.9998 43.9998L113.667 43.9998V81.9998Z" fill="url(#paint1_linear)"/>
<path d="M37.6665 75.6665L37.6665 50.3332L18.6665 62.9998L37.6665 75.6665ZM88.3332 75.6665L107.333 62.9998L88.3332 50.3332L88.3332 75.6665ZM50.3332 37.6665L75.6665 37.6665L62.9999 18.6665L50.3332 37.6665ZM62.9999 107.333L75.6665 88.3332L50.3332 88.3332L62.9999 107.333Z" fill="url(#paint2_linear)"/>
<path d="M63.0001 75.6668C69.9957 75.6668 75.6668 69.9958 75.6668 63.0002C75.6668 56.0046 69.9957 50.3335 63.0001 50.3335C56.0045 50.3335 50.3335 56.0046 50.3335 63.0002C50.3335 69.9958 56.0045 75.6668 63.0001 75.6668Z" fill="url(#paint3_linear)"/>
</g>
<defs>
<linearGradient id="paint0_linear" x1="572.5" y1="-13" x2="572.5" y2="139" gradientUnits="userSpaceOnUse">
<stop stop-color="#FF7D00"/>
<stop offset="1" stop-color="#FF0064"/>
</linearGradient>
<linearGradient id="paint1_linear" x1="62.9999" y1="-0.333496" x2="62.9999" y2="126.333" gradientUnits="userSpaceOnUse">
<stop stop-color="#FF7D00"/>
<stop offset="1" stop-color="#FF0064"/>
</linearGradient>
<linearGradient id="paint2_linear" x1="62.9999" y1="18.6665" x2="62.9999" y2="107.333" gradientUnits="userSpaceOnUse">
<stop stop-color="#FF7D00"/>
<stop offset="1" stop-color="#FF0064"/>
</linearGradient>
<linearGradient id="paint3_linear" x1="63.0001" y1="50.3335" x2="63.0001" y2="75.6668" gradientUnits="userSpaceOnUse">
<stop stop-color="#FF7D00"/>
<stop offset="1" stop-color="#FF0064"/>
</linearGradient>
<clipPath id="clip0">
<rect width="971" height="126" rx="30" fill="white"/>
</clipPath>
</defs>
</svg>
