<?xml version="1.0" encoding="utf-8"?>
<!-- Generator: Adobe Illustrator 16.0.0, SVG Export Plug-In . SVG Version: 6.00 Build 0)  -->
<!DOCTYPE svg PUBLIC "-//W3C//DTD SVG 1.1//EN" "http://www.w3.org/Graphics/SVG/1.1/DTD/svg11.dtd">
<svg version="1.1" id="Шар_1" xmlns="http://www.w3.org/2000/svg" xmlns:xlink="http://www.w3.org/1999/xlink" x="0px" y="0px"
	 width="107.031px" height="46.191px" viewBox="0 0 107.031 46.191" enable-background="new 0 0 107.031 46.191"
	 xml:space="preserve">
<g>
	<path fill="#43BBB9" d="M39.592,13.31v32.881h6.599V13.31c-1.035,0.353-2.145,0.547-3.299,0.547S40.628,13.663,39.592,13.31z"/>
	<path fill="#43BBB9" d="M69.287,13.198c-9.112,0-16.497,7.386-16.497,16.497v16.497h6.598V29.694c0-5.466,4.417-9.889,9.884-9.898
		c0.128,0,0.255,0.013,0.384,0.018c1.05-2.216,2.445-4.236,4.113-5.996C72.305,13.407,70.796,13.198,69.287,13.198z"/>
	<path fill="#43BBB9" d="M16.497,13.198C7.385,13.198,0,20.583,0,29.694c0,9.111,7.385,16.497,16.497,16.497h16.497V29.694
		C32.994,20.583,25.607,13.198,16.497,13.198z M16.497,39.592c-5.468,0-9.899-4.431-9.899-9.898c0-5.466,4.431-9.898,9.899-9.898
		c5.467,0,9.898,4.432,9.898,9.898C26.395,35.161,21.964,39.592,16.497,39.592z"/>
	<path fill="#43BBB9" d="M90.535,13.198c-9.111,0-16.497,7.386-16.497,16.497c0,9.111,7.386,16.497,16.497,16.497h16.497V29.694
		C107.031,20.583,99.645,13.198,90.535,13.198z M90.535,39.592c-5.468,0-9.898-4.431-9.898-9.898c0-5.466,4.431-9.898,9.898-9.898
		c5.467,0,9.898,4.432,9.898,9.898C100.433,35.161,96.002,39.592,90.535,39.592z"/>
	<circle fill="#43BBB9" cx="42.892" cy="3.629" r="3.629"/>
</g>
</svg>
