<svg xmlns="http://www.w3.org/2000/svg" viewBox="0 0 400 111"><path d="M396.1 43.2c-3.7-8.6-9.9-15.8-17.8-20.8-7.7-4.9-16.7-7.5-25.9-7.5-9.4 0-18.3 2.3-25.9 6.8-1.5.9-2.9 1.8-4.2 2.8-3.2-3-7-5.4-11.3-7.1-4.2-1.7-8.7-2.5-13.4-2.5-7.2 0-14 1.3-20.2 3.8-4.7 1.8-8.9 4.4-12.6 7.5-.8.7-1.6 1.4-2.4 2.2-1.5-1.7-3.2-3.2-5-4.6-4.1-3.2-8.9-5.5-14.2-7-4.9-1.4-10.2-2.1-16.2-2.1-6.6 0-12.7 1-18.3 3-4.4 1.6-8.5 3.7-12 6.4-1.9 1.4-3.6 3-5.2 4.7-2.4-2.5-5.1-4.6-8-6.5-7.7-4.9-16.6-7.5-25.8-7.5-6.7 0-13.1 1.2-19 3.5-2.6 1-5.2 2.3-7.6 3.8-1.6-1.4-3.4-2.7-5.3-3.7-2.6-1.4-5.5-2.4-8.7-3.1-2.9-.6-5.9-.9-9.2-.9-5.4 0-10.6 1-15.3 2.9-1.6.6-3.1 1.4-4.6 2.2-1.8-3.1-4.1-5.9-6.8-8.3-4.3-3.8-9.4-6.7-15.3-8.6C60.6.9 54.8 0 48.8 0h-9.1c-2.2 0-4.5.1-7.3.3-3.5.4-7.3 1-11 1.7-1.8.4-3.6.8-5.2 1.2-1.9.5-3.5.9-4.9 1.4L0 8.4v66c0 5.5 1.1 10.7 3.3 15.4 1.6 3.6 4 6.9 6.8 9.7 2 2 4.3 3.7 6.9 5.2 3.4 2 7.3 3.5 11.6 4.4 3.8.8 7.8 1.2 12.2 1.2H49c5.3 0 10.4-.7 15.3-2.1 3.9-1.2 7.6-2.8 11-4.8 1-.7 2.1-1.4 3.1-2.1 1.1 1 2.3 2 3.6 2.9 2.8 1.9 5.9 3.2 9.4 4.1 2.8.8 5.8 1.1 9.1 1.1h22.2V97.7c2.2 2.2 4.7 4.2 7.4 5.9 7.8 4.9 16.8 7.5 26.2 7.5 7 0 13.6-1.1 19.5-3.3 4.4-1.7 8.4-3.9 12-6.7 1.5 1.5 3.2 2.8 5 3.9 2.6 1.6 5.7 2.8 9 3.5 2.6.6 5.4.9 8.5.9h23.5v-2.8c2.2 1 4.5 1.7 7.1 2.2 2.2.4 4.5.6 7.3.6h25.2v-3.8c.6.3 1.3.6 1.9.9 6.3 2.8 13.2 4.2 20.6 4.2 4.2 0 8-.5 11.6-1.5 3.1-.9 5.9-2.1 8.4-3.6 2.1-1.2 4-2.7 5.6-4.4 2.4 1.8 4.9 3.4 7.6 4.7 6.7 3.3 14.2 5.1 21.9 5.1 7 0 13.6-1.1 19.6-3.1 4.6-1.7 8.9-4.1 12.6-7.1 5.5-4.5 10-10.4 12.8-17.2 2.6-6.4 4-13.5 4-21.2 0-6.7-1.3-13.2-3.9-19.2zM387 79.6c-2.2 5.3-5.6 9.9-9.9 13.3-2.9 2.4-6.2 4.2-9.9 5.6-4.8 1.8-10.2 2.7-16.1 2.7-6.1 0-12.2-1.4-17.5-4.1-3.4-1.7-6.5-3.9-9.2-6.5l-4.4-4.2-3.3 5.1c-.6 1-1.4 2-2.2 2.8-1.1 1.1-2.3 2.1-3.7 2.9-1.7 1.1-3.7 1.9-5.8 2.5-2.7.7-5.7 1.1-9 1.1-6 0-11.6-1.2-16.6-3.4-2.7-1.2-5.3-2.8-7.7-4.7l-8-6.4v13.1h-15.3c-2.2 0-3.9-.1-5.6-.4-2-.4-3.8-1-5.3-1.8-.3-.2-6.5-3.3-6.9-10 0 0-.1-27.8-.1-28.8 0-3.7-6.6-4.1-6.6-.2v11.7l.1 29.4h-13.6c-2.3 0-4.5-.2-6.4-.6-2.3-.5-4.2-1.2-6-2.3-1.3-.8-2.4-1.7-3.4-2.8-.7-.7-.5-.3-1.8-2.4s-2-6.6-2-6.6l-5.8 5.7c-.9 1-1.8 1.8-2.7 2.5-2.9 2.4-6.2 4.2-9.9 5.6-4.8 1.8-10.2 2.7-16.1 2.7-7.6 0-14.8-2.1-20.9-6-5.7-3.6-10.3-8.8-13.2-14.9l-.6-1.4.7 1.4s-6.7-14.4-1.5-25.3c0 0-3.2-2.3-6.4-.6-1.5.8-1.2 6.8-1.2 6.8v38.1h-12.3c-2.5 0-4.7-.3-6.8-.8-2.3-.6-4.4-1.5-6.2-2.7-1.3-.9-2.5-1.9-3.5-3.1-.3-.4-.7-.8-1-1.3l-3.3-4.8-4.2 4c-1.6 1.5-3.4 2.9-5.4 4.1-2.7 1.5-5.6 2.8-8.7 3.7-4 1.1-8.2 1.7-12.6 1.7H41c-3.7 0-7-.3-10.1-1-3.3-.7-6.2-1.8-8.8-3.3-1.8-1.1-3.5-2.3-4.9-3.7-1.9-1.9-3.6-4.2-4.7-6.7-1.5-3.3-2.3-7.1-2.3-11.2V15.3l4.5-1.5c1.2-.4 2.5-.8 4.1-1.2 1.4-.4 3-.8 4.7-1.1 3.4-.6 6.9-1.2 10.1-1.5 2.5-.3 4.5-.4 6.3-.4H49c5 0 9.7.7 14 2.1 4.6 1.5 8.5 3.7 11.7 6.6 2.3 2.1 4.2 4.5 5.6 7.1.5.9.9 1.9 1.3 2.9l2.4 6.6 5.4-4.5c2.1-1.7 4.5-3.2 7.1-4.2 3.5-1.5 7.4-2.2 11.6-2.2 2.6 0 4.9.2 7.1.7 2.3.4 4.3 1.1 6.1 2.1 1.2.7 2.4 1.5 3.4 2.4.7.7 1.3 1.3 1.9 2.1l3 3.9 3.9-2.9c2.7-2.1 5.7-3.8 8.9-5 4.7-1.9 9.9-2.8 15.4-2.8 7.3 0 14.4 2 20.5 5.9 3.7 2.3 6.9 5.3 9.6 8.8l4.2 5.5L196 39c1.9-2.8 4.2-5.3 6.9-7.3s5.9-3.7 9.3-4.9c4.5-1.6 9.6-2.4 15-2.4 5.1 0 9.5.6 13.6 1.7 4.2 1.2 7.8 2.9 10.9 5.3 2 1.6 3.9 3.4 5.4 5.5.3.4.7 1 1.1 1.6l3.8 5.9 4.3-5.5c1.6-2 3.3-3.8 5.2-5.4 2.9-2.4 6.3-4.4 9.9-5.9 5-2 10.5-3 16.5-3 3.4 0 6.7.6 9.8 1.8 3.1 1.2 5.8 2.9 8.1 5.1.8.8 1.6 1.7 2.3 2.6l3.3 4.5 4.1-3.8c1.9-1.8 4-3.4 6.3-4.7 6.1-3.6 13.3-5.5 20.9-5.5 7.3 0 14.4 2 20.5 5.9 6.2 4 11.1 9.7 14 16.4 2.1 4.8 3.1 9.9 3.1 15.3 0 6.4-1.1 12.2-3.3 17.4z" fill="#fff" fill-opacity=".5"/><path d="M77.8 70.3c0 4.1-.8 7.6-2.4 10.6s-3.8 5.5-6.5 7.5-5.8 3.5-9.2 4.5-7 1.5-10.7 1.5h-8.2c-7.6 0-13.6-1.6-17.9-4.8-4.3-3.2-6.4-8-6.4-14.5V21c1.4-.4 3.1-.9 5.1-1.4s4.1-.9 6.2-1.3 4.2-.7 6.3-.9c2.1-.2 3.9-.3 5.6-.3h9.1c3.8 0 7.3.5 10.7 1.4s6.3 2.3 8.8 4.1c2.5 1.8 4.5 4.1 5.9 6.7 1.5 2.7 2.2 5.7 2.2 9.1 0 1.7-.3 3.5-1 5.1-.7 1.7-1.6 3.2-2.8 4.6-1.2 1.4-2.5 2.6-4 3.6s-3 1.7-4.5 2.1c1.8.6 3.5 1.4 5.2 2.6 1.6 1.1 3.1 2.4 4.4 3.9s2.3 3.1 3 4.8c.7 1.9 1.1 3.6 1.1 5.2zM56 40.3c0-2.3-.8-4-2.3-5-1.6-1-3.9-1.5-6.9-1.5h-4.6c-.6 0-1.4 0-2.4.1-1.1.1-1.9.2-2.7.3v13.4h9.1c3.5 0 6-.6 7.5-1.9 1.5-1.2 2.3-3 2.3-5.4zm1.1 29.4c0-3-.7-5.1-2.2-6.2s-4.2-1.7-8.1-1.7h-9.6v11.6c0 2.2 1.2 3.2 3.7 3.2h6.6c3.5 0 5.9-.6 7.4-1.9 1.5-1.2 2.2-2.9 2.2-5zM122.4 49c-1.3-.5-2.5-.8-3.6-1-1.1-.1-2.3-.2-3.7-.2-2.5 0-4.7.7-6.4 2.2-1.7 1.5-2.6 4-2.6 7.6v35.9h-5.7c-4.5 0-8-1.1-10.6-3.3C87.3 88 86 84.4 86 79.4V53.3c0-3.1.5-5.9 1.5-8.5s2.4-4.9 4.3-6.9 4.2-3.5 6.9-4.6c2.7-1.1 5.7-1.7 9.1-1.7 5.2 0 9.1.9 11.5 2.8 2.4 1.9 3.6 4.2 3.6 7V49h-.5zm2.8 15.8c0-4.9.8-9.4 2.4-13.5s3.9-7.5 6.7-10.4c2.9-2.9 6.3-5.1 10.3-6.7s8.3-2.3 13.1-2.3c4.1 0 8 .7 11.7 2.2s7 3.6 9.9 6.3c2.9 2.7 5.2 6 6.9 9.8s2.6 8 2.6 12.6c0 4.9-.7 9.4-2.2 13.4s-3.6 7.3-6.4 10.1c-2.8 2.8-6.2 5-10.2 6.5s-8.6 2.3-13.8 2.3c-4.3 0-8.3-.7-12.1-2.2-3.8-1.5-7.1-3.6-9.9-6.3-2.8-2.7-5-5.9-6.6-9.6-1.6-3.7-2.4-7.7-2.4-12.2zm43.1 0c0-5.4-1.1-9.5-3.2-12.3-2.1-2.8-5-4.1-8.7-4.1-1.5 0-2.8.4-4.1 1.1s-2.4 1.7-3.4 2.9-1.8 2.7-2.4 4.5c-.6 1.7-.9 3.6-.9 5.6 0 5.8 1.1 10 3.2 12.6 2.1 2.6 5 3.9 8.7 3.9 3.3 0 5.9-1.3 7.8-4 2-2.7 3-6.1 3-10.2zm79.9 28.7c-4.6 0-7.7-.9-9.4-2.7-1.7-1.8-2.6-5-2.6-9.5v-21c0-4.1-.7-7-2.2-8.9s-4-2.8-7.5-2.8c-3 0-5.4 1-6.9 2.9-1.6 1.9-2.3 4.7-2.3 8.5v33.6h-7c-4.4 0-7.8-.9-10.2-2.8-2.4-1.9-3.5-5-3.5-9.4v-21c0-4.3.7-8.2 2.1-11.7s3.4-6.5 6-9 5.8-4.4 9.6-5.7c3.8-1.3 8.1-2 12.8-2 5.3 0 9.8.7 13.6 2s6.9 3.3 9.3 5.8c2.4 2.5 4.2 5.6 5.3 9.2 1.1 3.6 1.7 7.6 1.7 12v32.7h-8.8v-.2zm66.3-40.3c-.9-1-2.7-2-5.2-2.8-2.5-.9-5.2-1.3-8.1-1.3-5.1 0-9 1.2-11.7 3.6s-4.1 5.7-4.1 9.9c0 5.2 1.3 9 4 11.4 2.6 2.4 6.3 3.7 10.8 3.7 3.3 0 6-.3 8.3-.9s4.3-1.4 6.2-2.5h.2v6.2c0 2-.5 3.8-1.5 5.6-1 1.8-2.3 3.3-4 4.6-1.7 1.3-3.7 2.3-6 3.1-2.4.8-4.9 1.1-7.6 1.1-4.6 0-8.8-.7-12.6-2.2s-7.1-3.6-9.9-6.3c-2.8-2.7-4.9-5.9-6.4-9.8-1.5-3.8-2.3-8.1-2.3-12.8 0-4.3.7-8.4 2.2-12.2 1.5-3.9 3.6-7.2 6.4-10.1 2.8-2.9 6.2-5.2 10.3-6.9 4.1-1.7 8.8-2.6 14.1-2.6 2.4 0 4.6.4 6.7 1.1 2.1.7 3.9 1.7 5.5 3s2.8 2.7 3.8 4.4c.9 1.7 1.4 3.5 1.4 5.5v7.3l-.5-.1zm5.4 11.6c0-4.9.8-9.4 2.4-13.5 1.6-4.1 3.9-7.5 6.7-10.4 2.9-2.9 6.3-5.1 10.3-6.7s8.3-2.3 13.1-2.3c4.1 0 8 .7 11.7 2.2s7 3.6 9.9 6.3c2.9 2.7 5.2 6 6.9 9.8 1.7 3.8 2.6 8 2.6 12.6 0 4.9-.7 9.4-2.2 13.4s-3.6 7.3-6.4 10.1c-2.8 2.8-6.2 5-10.2 6.5s-8.6 2.3-13.8 2.3c-4.3 0-8.3-.7-12.1-2.2-3.8-1.5-7.1-3.6-9.9-6.3-2.8-2.7-5-5.9-6.6-9.6-1.5-3.7-2.4-7.7-2.4-12.2zm43.1 0c0-5.4-1.1-9.5-3.2-12.3-2.1-2.8-5-4.1-8.7-4.1-1.5 0-2.8.4-4.1 1.1s-2.4 1.7-3.4 2.9-1.8 2.7-2.4 4.5c-.6 1.7-.9 3.6-.9 5.6 0 5.8 1.1 10 3.2 12.6 2.1 2.6 5 3.9 8.7 3.9 3.3 0 5.9-1.3 7.8-4 2.1-2.7 3-6.1 3-10.2z" fill="#fff"/></svg>