<?xml version="1.0" encoding="utf-8"?>
<!-- Generator: Adobe Illustrator 16.0.4, SVG Export Plug-In . SVG Version: 6.00 Build 0)  -->
<!DOCTYPE svg PUBLIC "-//W3C//DTD SVG 1.1//EN" "http://www.w3.org/Graphics/SVG/1.1/DTD/svg11.dtd">
<svg version="1.1" id="Layer_1" xmlns="http://www.w3.org/2000/svg" xmlns:xlink="http://www.w3.org/1999/xlink" x="0px" y="0px"
	 width="73px" height="60px" viewBox="0 0 73 60" enable-background="new 0 0 73 60" xml:space="preserve">
<rect x="67.35938" y="48.77832" fill="#74CCD4" width="5.61035" height="5.61035"/>
<rect x="0.0293" y="48.7793" fill="#00A651" width="5.61084" height="5.61035"/>
<rect x="5.64014" y="43.16797" fill="#BCBEC0" width="5.61084" height="5.61133"/>
<rect x="5.64014" y="54.38965" fill="#008DA5" width="5.61084" height="5.61035"/>
<rect x="11.25098" y="48.7793" fill="#F58220" width="5.61084" height="5.61035"/>
<rect x="16.86182" y="43.16797" fill="#00AEEF" width="5.61035" height="5.61133"/>
<rect x="16.8623" y="54.38965" fill="#F7ACB4" width="5.61084" height="5.61035"/>
<rect x="22.47314" y="48.7793" fill="#EC008C" width="5.61035" height="5.61035"/>
<rect x="28.0835" y="43.16797" fill="#ED1C24" width="5.61084" height="5.61133"/>
<rect x="28.0835" y="54.38965" fill="#A59745" width="5.61084" height="5.61035"/>
<rect x="33.69434" y="48.7793" fill="#8D677A" width="5.61035" height="5.61035"/>
<rect x="39.30469" y="43.16797" fill="#9E1F63" width="5.61133" height="5.61133"/>
<rect x="39.30469" y="54.38965" fill="#536684" width="5.61133" height="5.61035"/>
<rect x="44.91602" y="48.7793" fill="#674FA0" width="5.61035" height="5.61035"/>
<rect x="50.52637" y="43.16797" fill="#C89462" width="5.61133" height="5.61133"/>
<rect x="50.52637" y="54.38965" fill="#992E33" width="5.61133" height="5.61035"/>
<rect x="56.1377" y="48.7793" fill="#BFD730" width="5.61035" height="5.61035"/>
<rect x="61.74805" y="43.16797" fill="#FFD400" width="5.61133" height="5.61133"/>
<rect x="61.74805" y="54.38965" fill="#374EA2" width="5.61133" height="5.61035"/>
<g>
	<defs>
		<rect id="SVGID_1_" x="0.0293" width="72.94141" height="60"/>
	</defs>
	<clipPath id="SVGID_2_">
		<use xlink:href="#SVGID_1_"  overflow="visible"/>
	</clipPath>
	<path clip-path="url(#SVGID_2_)" d="M54.33691,20.61621h2.91602c2.8623,0,3.74902,0.57275,3.74902,3.59229v4.32129
		c0,3.38428-1.04199,3.6958-3.85352,3.6958h-2.81152V20.61621z M54.33691,6.03906h2.70703c1.71875,0,2.81152,0.3125,3.22754,1.50977
		c0.26074,0.62451,0.26074,0.93701,0.26074,4.37305c0,1.87451-0.46875,2.96777-1.82227,3.28027
		c-0.57227,0.104-1.35352,0.104-4.37305,0.104V6.03906z M47.56934,37.53613h11.60938c2.65527,0,4.5293-0.20801,5.93555-1.14551
		c2.49902-1.66602,2.49902-4.73633,2.49902-6.71533v-5.20654c0-3.95654-0.3125-5.88281-4.68652-6.71582
		c2.60352-0.52051,4.32129-1.40576,4.32129-6.19531V8.27734c0-2.49854-0.31152-4.89355-2.6543-6.40332
		c-1.45898-0.9375-3.01953-1.09326-5.62305-1.09326H47.56934V37.53613z M36.37549,10.09961l2.23877,15.7749h-4.68555
		L36.37549,10.09961z M25.33838,37.53613h6.76807l0.98926-5.9873h6.24707l0.88574,5.9873h6.87207L40.22852,0.78076H32.4707
		L25.33838,37.53613z M25.96387,14.2124V8.53809c0-2.60352,0-8.53857-9.99609-8.53857c-1.40527,0-5.5708,0.05225-8.22559,2.91553
		C6.07617,4.7373,5.91992,6.76758,5.91992,9.73535v19.9917c0,2.03076,0,4.89404,2.91553,6.81982
		c2.13428,1.40625,5.20605,1.77051,7.13232,1.77051c9.99609,0,9.99609-6.40332,9.99609-9.37109v-5.20654h-6.71631v4.79004
		c0,2.23877,0,4.52881-3.17529,4.52881c-3.02002,0-3.38428-1.97803-3.38428-4.16455V9.21436
		c0-1.66553,0.15625-4.0083,3.12402-4.0083c2.96729,0,3.43555,1.56152,3.43555,4.3208v4.68555H25.96387z"/>
</g>
</svg>
