<?xml version="1.0" encoding="UTF-8"?> <!-- Generator: Adobe Illustrator 24.0.3, SVG Export Plug-In . SVG Version: 6.00 Build 0) --> <svg xmlns="http://www.w3.org/2000/svg" xmlns:xlink="http://www.w3.org/1999/xlink" version="1.1" id="Layer_1" x="0px" y="0px" viewBox="0 0 937.6 348.5" style="enable-background:new 0 0 937.6 348.5;" xml:space="preserve"> <style type="text/css"> .st0{fill:#E73843;} </style> <g> <path class="st0" d="M178.9,298.6c-17.7,25-41.5,37.6-71.6,37.6c-32.4,0-56.6-10.9-72.5-32.7C19,281.7,11,251.5,11,212.9 c0-18,2.3-34.4,6.8-49.3c4.6-14.9,11.1-27.7,19.7-38.4s19-19.1,31.4-25s26.4-8.8,42-8.8c11.5,0,22.9,2.1,34.2,6.2 c11.3,4.1,22,12.1,32,23.9V13.7H239v315.4h-60.1V298.6z M177.6,211.1c0-14.7-1.2-26.5-3.7-35.3c-2.5-8.8-6.6-16.1-12.2-21.6 c-5.3-5.3-11.1-8.8-17.5-10.4c-6.3-1.6-12.6-2.4-18.8-2.4c-6.8,0-13.2,1.3-19.2,4c-6,2.7-11.3,6.8-15.9,12.4 c-4.6,5.6-8.2,13-10.8,22.1c-2.7,9.1-4,20-4,32.7c0,13.8,1.3,25.4,3.8,34.7c2.5,9.3,6,16.8,10.4,22.5c4.4,5.7,9.6,9.9,15.5,12.4 s12.2,3.8,19,3.8c14.7,0,26.8-4.3,36.2-12.8c5.9-5.9,10.2-13,13-21.4c2.8-8.4,4.2-19.2,4.2-32.5V211.1z"></path> <path class="st0" d="M293.8,98.5h60.1v30.9c8.5-13,18.6-22.5,30-28.7c11.5-6.2,23.6-9.3,36.2-9.3c16.8,0,30.5,3.4,41.1,10.2 c10.6,6.8,18.1,16.6,22.5,29.6c10.6-14.1,21.8-24.3,33.6-30.5c11.8-6.2,24.7-9.3,38.9-9.3c23.9,0,41.7,6.6,53.7,19.7 c11.9,13.1,17.9,34.4,17.9,63.8v154.2h-61.8V183.3c0-8.3-0.8-14.9-2.2-20.1c-1.5-5.2-3.5-9.2-6-12.2c-2.5-2.9-5.5-5-9.1-6.2 s-7.2-1.8-11-1.8c-6.2,0-11.9,1-17,3.1c-5.1,2-10.2,5.6-15.2,10.6c-4.1,4.1-7.4,8.8-9.9,14.1c-2.5,5.3-3.8,10.9-3.8,16.8v141.4 h-61.9V183.3c0-8.3-0.7-14.9-2.2-20.1c-1.5-5.2-3.5-9.2-6-12.2c-2.5-2.9-5.5-5-9-6.2c-3.5-1.2-7.2-1.8-11.1-1.8 c-6.2,0-11.8,1-17,3.1c-5.2,2-10.2,5.6-15.2,10.6c-4.1,4.1-7.4,9.1-9.9,14.8c-2.5,5.7-3.8,12-3.8,18.8v138.7h-61.8V98.5z"></path> <path class="st0" d="M694.5,146.6h-36.2V98.5h36.2V37.1h61.9v61.4h53v48.2h-53v106.5c0,12.1,2.5,20.3,7.5,24.5 c5,4.3,11.5,6.4,19.4,6.4c4.1,0,8.3-0.2,12.6-0.7c4.3-0.4,8.5-1.2,12.6-2.4l8.8,45.5c-8.5,2.6-16.9,4.5-25,5.5 c-8.1,1-15.8,1.5-23.2,1.5c-25.3,0-44.1-6-56.3-18.1c-12.2-12.1-18.3-32.4-18.3-61V146.6z"></path> <path class="st0" d="M883.1,332.6c-26.9,0-45.1-18.1-45.1-40.6c0-23.4,18.1-41.5,45.1-41.5c26.5,0,44.6,18.1,44.6,41.5 C927.7,314.5,909.6,332.6,883.1,332.6z"></path> </g> </svg> 